<svg width="703" height="131" viewBox="0 0 703 131" fill="none" xmlns="http://www.w3.org/2000/svg">
<rect width="703" height="131" fill="white"/>
<path d="M350.149 21.4649C348.345 21.4649 346.688 21.0827 345.178 20.3184C343.687 19.5344 342.481 18.4663 341.559 17.1141C340.657 15.7618 340.137 14.2331 340 12.528H345.413C345.589 13.312 345.893 13.9979 346.325 14.5859C346.776 15.1738 347.325 15.6344 347.972 15.9675C348.639 16.2811 349.375 16.4379 350.179 16.4379C350.943 16.4379 351.65 16.2909 352.297 15.9969C352.944 15.6834 353.493 15.262 353.944 14.7329C354.415 14.1841 354.748 13.5472 354.944 12.822H348.678V8.64757H354.944C354.748 7.92243 354.415 7.29528 353.944 6.76613C353.493 6.21737 352.944 5.79601 352.297 5.50204C351.65 5.18846 350.943 5.03167 350.179 5.03167C349.375 5.03167 348.639 5.19826 347.972 5.53143C347.325 5.84501 346.776 6.29577 346.325 6.88372C345.893 7.47167 345.589 8.15761 345.413 8.94154H340C340.137 7.23649 340.667 5.70782 341.589 4.35553C342.51 3.00325 343.716 1.94494 345.207 1.1806C346.717 0.396667 348.365 0.00469971 350.149 0.00469971C352.169 0.00469971 353.983 0.47506 355.592 1.41578C357.219 2.3369 358.494 3.6108 359.416 5.23746C360.338 6.86412 360.799 8.69656 360.799 10.7348C360.799 12.7534 360.338 14.5859 359.416 16.2321C358.494 17.8588 357.219 19.1425 355.592 20.0832C353.983 21.0043 352.169 21.4649 350.149 21.4649Z" fill="black"/>
<path d="M365.482 21.4355C364.854 21.4355 364.305 21.3963 363.835 21.3179C363.364 21.2395 362.952 21.1415 362.599 21.0239V15.7324C362.619 15.7324 362.628 15.7324 362.628 15.7324C362.981 15.752 363.325 15.7716 363.658 15.7912C363.991 15.7912 364.335 15.7912 364.688 15.7912C364.884 15.7912 365.06 15.752 365.217 15.6736C365.374 15.5952 365.511 15.4678 365.629 15.2914C365.747 15.115 365.845 14.8798 365.923 14.5859C366.159 13.7431 366.325 12.4007 366.423 10.5584C366.521 8.69656 366.57 6.42316 366.57 3.73818V0.445662H383.486V21.0239H377.955V5.76661H371.866V6.23697C371.826 9.07873 371.679 11.6363 371.424 13.9097C371.189 16.1831 370.797 17.8294 370.248 18.8485C369.777 19.7108 369.149 20.3576 368.365 20.7887C367.58 21.2199 366.619 21.4355 365.482 21.4355Z" fill="black"/>
<path d="M388.763 0.445662H403.62V5.23746H394.176V8.50058H400.472V12.969H394.176V16.2321H404.355V21.0239H388.763V0.445662Z" fill="black"/>
<path d="M408.557 0.445662H414.029V8.08902H416.824L421.825 0.445662H427.856L421.472 10.2938L428.415 21.0239H421.796L416.794 13.3806H414.029V21.0239H408.557V0.445662Z" fill="black"/>
<path d="M436.808 5.76661H429.63V0.445662H449.517V5.76661H442.339V21.0239H436.808V5.76661Z" fill="black"/>
<path d="M453 0.445662H461.796C464.385 0.445662 466.415 1.05321 467.886 2.26831C469.357 3.48341 470.092 5.16886 470.092 7.32468C470.092 9.4413 469.357 11.117 467.886 12.3517C466.415 13.5668 464.385 14.1743 461.796 14.1743H458.443V21.0239H453V0.445662ZM461.855 9.85287C462.659 9.85287 463.306 9.63728 463.797 9.20612C464.307 8.77496 464.562 8.2164 464.562 7.53046C464.562 6.82492 464.307 6.26637 463.797 5.8548C463.306 5.42364 462.659 5.20806 461.855 5.20806H458.443V9.85287H461.855Z" fill="black"/>
<path d="M554.898 0.445662H560.429V8.08902H568.195V0.445662H573.726V21.0239H568.195V13.3806H560.429V21.0239H554.898V0.445662Z" fill="black"/>
<path d="M579.03 0.445662H584.561V8.08902H592.327V0.445662H597.858V21.0239H592.327V13.3806H584.561V21.0239H579.03V0.445662Z" fill="black"/>
<path d="M608.604 0.445662H615.812L623.372 21.0239H617.489L616.194 17.2022H608.075L606.81 21.0239H601.044L608.604 0.445662ZM614.782 12.7926L612.252 5.20806H612.017L609.487 12.7926H614.782Z" fill="black"/>
<path d="M629.548 13.2336C628.312 12.6848 627.351 11.9009 626.665 10.8818C625.998 9.86266 625.665 8.64757 625.665 7.23649C625.665 5.11987 626.4 3.46381 627.871 2.26831C629.361 1.05321 631.401 0.445662 633.99 0.445662H643.521V21.0239H638.079V14.0567H635.137L630.371 21.0239H624.252L629.548 13.2336ZM638.079 9.70588V5.29625H633.843C633.039 5.29625 632.391 5.50203 631.901 5.9136C631.43 6.30557 631.195 6.83472 631.195 7.50107C631.195 8.14781 631.43 8.67696 631.901 9.08853C632.391 9.50009 633.039 9.70588 633.843 9.70588H638.079Z" fill="black"/>
<path d="M341.706 35.7227H347.119V48.0402L355.327 35.7227H361.122V56.3009H355.709V43.954L347.472 56.3009H341.706V35.7227Z" fill="black"/>
<path d="M366.413 35.7227H371.943V43.366H379.71V35.7227H385.24V56.3009H379.71V48.6576H371.943V56.3009H366.413V35.7227Z" fill="black"/>
<path d="M400.547 53.8903H398.37C396.467 53.8903 394.81 53.5572 393.398 52.8908C392.006 52.2245 390.927 51.2838 390.162 50.0687C389.397 48.8536 389.015 47.4425 389.015 45.8354C389.015 44.2284 389.397 42.8173 390.162 41.6022C390.927 40.3871 392.006 39.4562 393.398 38.8094C394.81 38.1431 396.467 37.8099 398.37 37.8099H400.547V35.4287H406.077V37.8099H408.225C410.127 37.8099 411.775 38.1431 413.167 38.8094C414.579 39.4562 415.668 40.3871 416.432 41.6022C417.197 42.8173 417.58 44.2284 417.58 45.8354C417.58 47.4425 417.197 48.8536 416.432 50.0687C415.668 51.2838 414.579 52.2245 413.167 52.8908C411.775 53.5572 410.127 53.8903 408.225 53.8903H406.077V56.3009H400.547V53.8903ZM400.547 49.0691V42.6017H398.399C397.183 42.6017 396.252 42.8859 395.605 43.4542C394.977 44.003 394.663 44.7967 394.663 45.8354C394.663 46.5214 394.8 47.1093 395.075 47.5993C395.369 48.0696 395.791 48.4322 396.34 48.687C396.889 48.9418 397.576 49.0691 398.399 49.0691H400.547ZM408.195 49.0691C409.019 49.0691 409.706 48.9418 410.255 48.687C410.804 48.4322 411.216 48.0696 411.49 47.5993C411.784 47.1093 411.932 46.5214 411.932 45.8354C411.932 44.7967 411.608 44.003 410.961 43.4542C410.333 42.8859 409.411 42.6017 408.195 42.6017H406.077V49.0691H408.195Z" fill="black"/>
<path d="M430.844 56.7419C428.804 56.7419 426.951 56.2813 425.284 55.3602C423.636 54.4195 422.342 53.1358 421.4 51.5091C420.479 49.8629 420.018 48.0304 420.018 46.0118C420.018 43.9932 420.479 42.1705 421.4 40.5439C422.342 38.8976 423.636 37.6139 425.284 36.6928C426.951 35.7521 428.804 35.2817 430.844 35.2817C432.903 35.2817 434.756 35.7521 436.404 36.6928C438.051 37.6139 439.345 38.8976 440.287 40.5439C441.228 42.1705 441.699 43.9932 441.699 46.0118C441.699 48.0304 441.228 49.8629 440.287 51.5091C439.345 53.1358 438.051 54.4195 436.404 55.3602C434.756 56.2813 432.903 56.7419 430.844 56.7419ZM430.844 51.3915C431.824 51.3915 432.707 51.1564 433.491 50.686C434.295 50.2156 434.923 49.5787 435.374 48.7752C435.825 47.952 436.051 47.0309 436.051 46.0118C436.051 44.9927 435.825 44.0814 435.374 43.2778C434.923 42.4547 434.295 41.808 433.491 41.3376C432.707 40.8672 431.824 40.6321 430.844 40.6321C429.863 40.6321 428.98 40.8672 428.196 41.3376C427.412 41.808 426.794 42.4547 426.343 43.2778C425.892 44.0814 425.666 44.9927 425.666 46.0118C425.666 47.0309 425.892 47.952 426.343 48.7752C426.794 49.5787 427.412 50.2156 428.196 50.686C428.98 51.1564 429.863 51.3915 430.844 51.3915Z" fill="black"/>
<path d="M445.646 35.7227H454.442C457.031 35.7227 459.06 36.3302 460.531 37.5453C462.002 38.7604 462.738 40.4459 462.738 42.6017C462.738 44.7183 462.002 46.394 460.531 47.6287C459.06 48.8438 457.031 49.4513 454.442 49.4513H451.088V56.3009H445.646V35.7227ZM454.501 45.1299C455.305 45.1299 455.952 44.9143 456.442 44.4831C456.952 44.052 457.207 43.4934 457.207 42.8075C457.207 42.1019 456.952 41.5434 456.442 41.1318C455.952 40.7007 455.305 40.4851 454.501 40.4851H451.088V45.1299H454.501Z" fill="black"/>
<path d="M466.417 35.7227H475.654L479.478 49.5395L483.332 35.7227H492.451V56.3009H487.068V40.1029L482.567 56.3009H476.272L471.8 40.1029V56.3009H466.417V35.7227Z" fill="black"/>
<path d="M503.202 35.7227H510.409L517.97 56.3009H512.086L510.792 52.4793H502.672L501.407 56.3009H495.641L503.202 35.7227ZM509.379 48.0696L506.85 40.4851H506.614L504.084 48.0696H509.379Z" fill="black"/>
<path d="M537.207 56.3009H521.144V35.7227H526.675V51.0388H534.441V35.7227H539.972V51.0388H542.472V60.446H537.207V56.3009Z" fill="black"/>
<path d="M546.023 35.7227H551.436V48.0402L559.644 35.7227H565.439V56.3009H560.026V43.954L551.789 56.3009H546.023V35.7227Z" fill="black"/>
<path d="M580.232 56.7419C578.192 56.7419 576.339 56.2813 574.672 55.3602C573.024 54.4195 571.73 53.1358 570.789 51.5091C569.867 49.8629 569.406 48.0304 569.406 46.0118C569.406 43.9932 569.867 42.1705 570.789 40.5439C571.73 38.8976 573.024 37.6139 574.672 36.6928C576.339 35.7521 578.192 35.2817 580.232 35.2817C582.291 35.2817 584.144 35.7521 585.792 36.6928C587.439 37.6139 588.734 38.8976 589.675 40.5439C590.616 42.1705 591.087 43.9932 591.087 46.0118C591.087 48.0304 590.616 49.8629 589.675 51.5091C588.734 53.1358 587.439 54.4195 585.792 55.3602C584.144 56.2813 582.291 56.7419 580.232 56.7419ZM580.232 51.3915C581.212 51.3915 582.095 51.1564 582.879 50.686C583.683 50.2156 584.311 49.5787 584.762 48.7752C585.213 47.952 585.439 47.0309 585.439 46.0118C585.439 44.9927 585.213 44.0814 584.762 43.2778C584.311 42.4547 583.683 41.808 582.879 41.3376C582.095 40.8672 581.212 40.6321 580.232 40.6321C579.251 40.6321 578.369 40.8672 577.584 41.3376C576.8 41.808 576.182 42.4547 575.731 43.2778C575.28 44.0814 575.054 44.9927 575.054 46.0118C575.054 47.0309 575.28 47.952 575.731 48.7752C576.182 49.5787 576.8 50.2156 577.584 50.686C578.369 51.1564 579.251 51.3915 580.232 51.3915Z" fill="black"/>
<path d="M595.034 35.7227H600.565V43.366H608.331V35.7227H613.862V56.3009H608.331V48.6576H600.565V56.3009H595.034V35.7227Z" fill="black"/>
<path d="M619.166 35.7227H624.697V43.366H632.463V35.7227H637.993V56.3009H632.463V48.6576H624.697V56.3009H619.166V35.7227Z" fill="black"/>
<path d="M652.8 56.7419C650.76 56.7419 648.907 56.2813 647.24 55.3602C645.592 54.4195 644.298 53.1358 643.357 51.5091C642.435 49.8629 641.974 48.0304 641.974 46.0118C641.974 43.9932 642.435 42.1705 643.357 40.5439C644.298 38.8976 645.592 37.6139 647.24 36.6928C648.907 35.7521 650.76 35.2817 652.8 35.2817C654.859 35.2817 656.712 35.7521 658.36 36.6928C660.007 37.6139 661.302 38.8976 662.243 40.5439C663.184 42.1705 663.655 43.9932 663.655 46.0118C663.655 48.0304 663.184 49.8629 662.243 51.5091C661.302 53.1358 660.007 54.4195 658.36 55.3602C656.712 56.2813 654.859 56.7419 652.8 56.7419ZM652.8 51.3915C653.78 51.3915 654.663 51.1564 655.447 50.686C656.252 50.2156 656.879 49.5787 657.33 48.7752C657.781 47.952 658.007 47.0309 658.007 46.0118C658.007 44.9927 657.781 44.0814 657.33 43.2778C656.879 42.4547 656.252 41.808 655.447 41.3376C654.663 40.8672 653.78 40.6321 652.8 40.6321C651.819 40.6321 650.937 40.8672 650.152 41.3376C649.368 41.808 648.75 42.4547 648.299 43.2778C647.848 44.0814 647.622 44.9927 647.622 46.0118C647.622 47.0309 647.848 47.952 648.299 48.7752C648.75 49.5787 649.368 50.2156 650.152 50.686C650.937 51.1564 651.819 51.3915 652.8 51.3915Z" fill="black"/>
<path d="M666.808 45.3357H675.369V49.6277H666.808V45.3357Z" fill="black"/>
<path d="M351.208 92.0189C349.169 92.0189 347.315 91.5583 345.648 90.6372C344.001 89.6965 342.706 88.4128 341.765 86.7861C340.843 85.1399 340.382 83.3074 340.382 81.2888C340.382 79.2702 340.843 77.4475 341.765 75.8209C342.706 74.1746 344.001 72.8909 345.648 71.9698C347.315 71.0291 349.169 70.5587 351.208 70.5587C353.268 70.5587 355.121 71.0291 356.768 71.9698C358.416 72.8909 359.71 74.1746 360.651 75.8209C361.593 77.4475 362.063 79.2702 362.063 81.2888C362.063 83.3074 361.593 85.1399 360.651 86.7861C359.71 88.4128 358.416 89.6965 356.768 90.6372C355.121 91.5583 353.268 92.0189 351.208 92.0189ZM351.208 86.6685C352.189 86.6685 353.071 86.4334 353.856 85.963C354.66 85.4927 355.288 84.8557 355.739 84.0522C356.19 83.229 356.415 82.3079 356.415 81.2888C356.415 80.2697 356.19 79.3584 355.739 78.5548C355.288 77.7317 354.66 77.085 353.856 76.6146C353.071 76.1442 352.189 75.9091 351.208 75.9091C350.228 75.9091 349.345 76.1442 348.561 76.6146C347.776 77.085 347.158 77.7317 346.707 78.5548C346.256 79.3584 346.031 80.2697 346.031 81.2888C346.031 82.3079 346.256 83.229 346.707 84.0522C347.158 84.8557 347.776 85.4927 348.561 85.963C349.345 86.4334 350.228 86.6685 351.208 86.6685Z" fill="black"/>
<path d="M366.011 70.9997H382.073V75.7915H371.276V78.937H376.101C378.415 78.937 380.239 79.5054 381.573 80.6421C382.926 81.7592 383.602 83.2976 383.602 85.2575C383.602 87.2173 382.926 88.7656 381.573 89.9023C380.239 91.0194 378.415 91.5779 376.101 91.5779H366.011V70.9997ZM375.66 87.1389C376.385 87.1389 376.964 86.9625 377.395 86.6098C377.846 86.2374 378.072 85.7474 378.072 85.1399C378.072 84.5519 377.846 84.0816 377.395 83.7288C376.964 83.3564 376.385 83.1703 375.66 83.1703H371.276V87.1389H375.66Z" fill="black"/>
<path d="M387.356 70.9997H396.152C398.741 70.9997 400.77 71.6072 402.241 72.8223C403.712 74.0374 404.448 75.7229 404.448 77.8787C404.448 79.9953 403.712 81.671 402.241 82.9057C400.77 84.1208 398.741 84.7283 396.152 84.7283H392.798V91.5779H387.356V70.9997ZM396.211 80.4069C397.015 80.4069 397.662 80.1913 398.152 79.7601C398.662 79.329 398.917 78.7704 398.917 78.0845C398.917 77.3789 398.662 76.8204 398.152 76.4088C397.662 75.9777 397.015 75.7621 396.211 75.7621H392.798V80.4069H396.211Z" fill="black"/>
<path d="M411.903 70.9997H419.11L426.67 91.5779H420.787L419.492 87.7563H411.373L410.108 91.5779H404.342L411.903 70.9997ZM418.08 83.3466L415.55 75.7621H415.315L412.785 83.3466H418.08Z" fill="black"/>
<path d="M438.494 92.0189C436.67 92.0189 434.993 91.6955 433.464 91.0488C431.954 90.3824 430.708 89.3927 429.728 88.0796C428.767 86.7666 428.237 85.1497 428.139 83.229H433.522C433.699 84.5225 434.199 85.5318 435.023 86.257C435.866 86.9625 436.994 87.3153 438.406 87.3153C439.504 87.3153 440.377 87.1193 441.024 86.7273C441.691 86.3354 442.024 85.8062 442.024 85.1399C442.024 84.7675 441.916 84.4441 441.701 84.1698C441.485 83.8758 441.171 83.6602 440.759 83.523C440.347 83.3662 439.847 83.2878 439.259 83.2878H436.523V79.2016H439.259C439.71 79.2016 440.102 79.133 440.436 78.9958C440.769 78.839 441.024 78.6332 441.201 78.3785C441.377 78.1041 441.465 77.7905 441.465 77.4377C441.465 77.0262 441.328 76.6636 441.053 76.35C440.779 76.0365 440.387 75.8013 439.877 75.6445C439.386 75.4681 438.808 75.3799 438.141 75.3799C436.964 75.3799 435.974 75.6543 435.17 76.203C434.385 76.7518 433.895 77.5259 433.699 78.5254H428.315C428.59 76.742 429.208 75.2525 430.169 74.057C431.149 72.8615 432.346 71.9796 433.758 71.4112C435.17 70.8429 436.7 70.5587 438.347 70.5587C439.916 70.5587 441.357 70.8135 442.671 71.3231C444.005 71.813 445.064 72.5382 445.849 73.4985C446.633 74.4588 447.025 75.5857 447.025 76.8792C447.025 77.7611 446.839 78.5548 446.466 79.2604C446.094 79.9463 445.554 80.5245 444.848 80.9948C445.731 81.4848 446.408 82.1119 446.878 82.8763C447.369 83.621 447.614 84.4931 447.614 85.4927C447.614 86.8057 447.212 87.962 446.408 88.9616C445.603 89.9611 444.505 90.7254 443.113 91.2546C441.74 91.7641 440.2 92.0189 438.494 92.0189Z" fill="black"/>
<path d="M460.894 92.0189C458.854 92.0189 457.001 91.5583 455.334 90.6372C453.686 89.6965 452.392 88.4128 451.45 86.7861C450.529 85.1399 450.068 83.3074 450.068 81.2888C450.068 79.2702 450.529 77.4475 451.45 75.8209C452.392 74.1746 453.686 72.8909 455.334 71.9698C457.001 71.0291 458.854 70.5587 460.894 70.5587C462.953 70.5587 464.806 71.0291 466.454 71.9698C468.101 72.8909 469.395 74.1746 470.337 75.8209C471.278 77.4475 471.749 79.2702 471.749 81.2888C471.749 83.3074 471.278 85.1399 470.337 86.7861C469.395 88.4128 468.101 89.6965 466.454 90.6372C464.806 91.5583 462.953 92.0189 460.894 92.0189ZM460.894 86.6685C461.874 86.6685 462.757 86.4334 463.541 85.963C464.345 85.4927 464.973 84.8557 465.424 84.0522C465.875 83.229 466.101 82.3079 466.101 81.2888C466.101 80.2697 465.875 79.3584 465.424 78.5548C464.973 77.7317 464.345 77.085 463.541 76.6146C462.757 76.1442 461.874 75.9091 460.894 75.9091C459.913 75.9091 459.03 76.1442 458.246 76.6146C457.462 77.085 456.844 77.7317 456.393 78.5548C455.942 79.3584 455.716 80.2697 455.716 81.2888C455.716 82.3079 455.942 83.229 456.393 84.0522C456.844 84.8557 457.462 85.4927 458.246 85.963C459.03 86.4334 459.913 86.6685 460.894 86.6685Z" fill="black"/>
<path d="M475.696 70.9997H485.904C488.159 70.9997 489.924 71.5092 491.199 72.5284C492.494 73.5279 493.141 74.8998 493.141 76.644C493.141 77.5455 492.964 78.3491 492.611 79.0546C492.258 79.7601 491.748 80.3677 491.081 80.8772V81.0536C491.944 81.5632 492.601 82.2197 493.052 83.0233C493.523 83.8268 493.759 84.7283 493.759 85.7278C493.759 86.8841 493.455 87.9032 492.847 88.7852C492.258 89.6671 491.415 90.353 490.317 90.843C489.218 91.333 487.963 91.5779 486.551 91.5779H475.696V70.9997ZM486.08 87.0801C486.728 87.0801 487.247 86.9135 487.64 86.5804C488.032 86.2276 488.228 85.7768 488.228 85.2281C488.228 84.6793 488.032 84.2384 487.64 83.9052C487.247 83.572 486.728 83.4054 486.08 83.4054H480.962V87.0801H486.08ZM485.61 79.0546C486.218 79.0546 486.708 78.8978 487.081 78.5842C487.473 78.2511 487.669 77.8199 487.669 77.2907C487.669 76.7616 487.473 76.3304 487.081 75.9973C486.708 75.6641 486.218 75.4975 485.61 75.4975H480.962V79.0546H485.61Z" fill="black"/>
<path d="M503.029 70.9997H510.237L517.797 91.5779H511.914L510.619 87.7563H502.5L501.235 91.5779H495.469L503.029 70.9997ZM509.207 83.3466L506.677 75.7621H506.442L503.912 83.3466H509.207Z" fill="black"/>
<path d="M573.841 70.9997H588.697V75.7915H579.254V79.0546H585.549V83.523H579.254V86.7861H589.433V91.5779H573.841V70.9997Z" fill="black"/>
<path d="M594.37 91.9895C593.743 91.9895 593.194 91.9503 592.723 91.8719C592.252 91.7935 591.841 91.6955 591.488 91.5779V86.2864C591.507 86.2864 591.517 86.2864 591.517 86.2864C591.87 86.306 592.213 86.3256 592.547 86.3452C592.88 86.3452 593.223 86.3452 593.576 86.3452C593.772 86.3452 593.949 86.306 594.106 86.2276C594.263 86.1492 594.4 86.0218 594.518 85.8454C594.635 85.669 594.733 85.4339 594.812 85.1399C595.047 84.2972 595.214 82.9547 595.312 81.1124C595.41 79.2506 595.459 76.9772 595.459 74.2922V70.9997H612.374V91.5779H606.844V76.3206H600.754V76.791C600.715 79.6327 600.568 82.1903 600.313 84.4637C600.078 86.7371 599.685 88.3834 599.136 89.4025C598.665 90.2648 598.038 90.9116 597.253 91.3428C596.469 91.7739 595.508 91.9895 594.37 91.9895Z" fill="black"/>
<path d="M617.652 70.9997H623.065V77.8493H626.654C629.164 77.8493 631.145 78.4568 632.596 79.6719C634.048 80.887 634.773 82.5627 634.773 84.6989C634.773 86.11 634.44 87.3349 633.773 88.3736C633.126 89.4123 632.185 90.2061 630.949 90.7548C629.733 91.3036 628.301 91.5779 626.654 91.5779H617.652V70.9997ZM626.566 86.8155C627.37 86.8155 628.017 86.6 628.507 86.1688C628.998 85.7376 629.243 85.1791 629.243 84.4931C629.243 83.7876 628.998 83.229 628.507 82.8175C628.017 82.3863 627.37 82.1707 626.566 82.1707H623.065V86.8155H626.566Z" fill="black"/>
<path d="M638.509 70.9997H644.039V78.643H651.806V70.9997H657.336V91.5779H651.806V83.9346H644.039V91.5779H638.509V70.9997Z" fill="black"/>
<path d="M668.083 70.9997H675.291L682.851 91.5779H676.967L675.673 87.7563H667.554L666.289 91.5779H660.523L668.083 70.9997ZM674.261 83.3466L671.731 75.7621H671.496L668.966 83.3466H674.261Z" fill="black"/>
<path d="M689.026 83.7876C687.791 83.2388 686.83 82.4549 686.144 81.4358C685.477 80.4167 685.143 79.2016 685.143 77.7905C685.143 75.6739 685.879 74.0178 687.35 72.8223C688.84 71.6072 690.88 70.9997 693.469 70.9997H703V91.5779H697.558V84.6107H694.616L689.85 91.5779H683.731L689.026 83.7876ZM697.558 80.2599V75.8503H693.321C692.517 75.8503 691.87 76.0561 691.38 76.4676C690.909 76.8596 690.674 77.3887 690.674 78.0551C690.674 78.7018 690.909 79.231 691.38 79.6426C691.87 80.0541 692.517 80.2599 693.321 80.2599H697.558Z" fill="black"/>
<path d="M351.032 127.296C348.992 127.296 347.158 126.835 345.531 125.914C343.922 124.993 342.657 123.719 341.736 122.093C340.834 120.446 340.382 118.604 340.382 116.566C340.382 114.528 340.834 112.695 341.736 111.068C342.657 109.422 343.922 108.139 345.531 107.217C347.158 106.296 348.992 105.836 351.032 105.836C352.836 105.836 354.483 106.228 355.974 107.012C357.484 107.776 358.69 108.844 359.592 110.216C360.514 111.588 361.034 113.117 361.152 114.802H355.562C355.386 114.096 355.082 113.469 354.65 112.921C354.219 112.372 353.689 111.95 353.062 111.656C352.434 111.343 351.738 111.186 350.973 111.186C350.032 111.186 349.178 111.421 348.414 111.892C347.668 112.342 347.08 112.979 346.648 113.802C346.237 114.606 346.031 115.527 346.031 116.566C346.031 117.605 346.237 118.535 346.648 119.359C347.08 120.162 347.668 120.799 348.414 121.269C349.178 121.72 350.032 121.946 350.973 121.946C351.738 121.946 352.434 121.799 353.062 121.505C353.709 121.191 354.238 120.76 354.65 120.211C355.082 119.662 355.386 119.035 355.562 118.33H361.152C361.034 120.015 360.514 121.544 359.592 122.916C358.671 124.288 357.464 125.365 355.974 126.149C354.483 126.914 352.836 127.296 351.032 127.296Z" fill="black"/>
<path d="M364.804 106.277H373.6C376.189 106.277 378.219 106.884 379.689 108.099C381.16 109.314 381.896 111 381.896 113.156C381.896 115.272 381.16 116.948 379.689 118.183C378.219 119.398 376.189 120.005 373.6 120.005H370.246V126.855H364.804V106.277ZM373.659 115.684C374.463 115.684 375.11 115.468 375.6 115.037C376.11 114.606 376.365 114.047 376.365 113.361C376.365 112.656 376.11 112.097 375.6 111.686C375.11 111.255 374.463 111.039 373.659 111.039H370.246V115.684H373.659Z" fill="black"/>
<path d="M385.575 106.277H400.431V111.068H390.988V114.332H397.283V118.8H390.988V122.063H401.166V126.855H385.575V106.277Z" fill="black"/>
<path d="M403.28 121.593H405.751C406.045 120.064 406.251 118.477 406.369 116.83C406.506 115.184 406.575 113.166 406.575 110.775C406.575 110.618 406.575 110.461 406.575 110.304C406.575 110.128 406.575 109.951 406.575 109.775V106.277H423.725V121.593H426.608V131H421.313V126.855H408.575V131H403.28V121.593ZM418.312 121.887V111.215H411.988V111.745C411.968 113.842 411.88 115.674 411.723 117.242C411.586 118.81 411.37 120.358 411.076 121.887H418.312Z" fill="black"/>
<path d="M435.603 106.277H484.839L492.399 126.855H444.488L443.193 123.033H435.074L433.809 126.855H428.043L435.603 106.277ZM441.781 118.624L439.251 111.039H439.016L436.486 118.624H441.781Z" fill="url(#paint0_linear_2_2)"/>
<path d="M524.372 76.3206H517.194V70.9997H570.357V76.3206H563.179V91.578H524.372V76.3206Z" fill="url(#paint1_linear_2_2)"/>
<path fill-rule="evenodd" clip-rule="evenodd" d="M540.127 0H483.206L483.21 0.00479129C481.195 0.0143374 479.363 0.484647 477.713 1.41572C476.065 2.33684 474.771 3.62054 473.83 5.2668C472.908 6.89346 472.447 8.71611 472.447 10.7347C472.447 12.7534 472.908 14.5858 473.83 16.2321C474.771 17.8587 476.065 19.1424 477.713 20.0831C479.362 20.9944 481.193 21.4549 483.207 21.4647L483.206 21.466H540.127C546.059 21.466 550.868 16.6607 550.868 10.733C550.868 4.80532 546.059 0 540.127 0ZM485.92 15.4089C485.136 15.8793 484.253 16.1145 483.273 16.1145C482.292 16.1145 481.41 15.8793 480.625 15.4089C479.841 14.9386 479.223 14.3016 478.772 13.4981C478.321 12.675 478.095 11.7539 478.095 10.7347C478.095 9.71562 478.321 8.8043 478.772 8.00077C479.223 7.17764 479.841 6.53089 480.625 6.06053C481.41 5.59017 482.292 5.35499 483.273 5.35499C484.253 5.35499 485.136 5.59017 485.92 6.06053C486.724 6.53089 487.352 7.17764 487.803 8.00077C488.254 8.8043 488.48 9.71562 488.48 10.7347C488.48 11.7539 488.254 12.675 487.803 13.4981C487.352 14.3016 486.724 14.9386 485.92 15.4089Z" fill="url(#paint2_linear_2_2)"/>
<path d="M2.37497 8.97693H15.6467V27.4691H22.4222L34.5065 8.97693H49.1054L33.6682 32.7724L50.4325 58.6614H34.4367L22.3524 40.1693H15.6467V58.6614H2.37497V8.97693V8.97693Z" fill="black"/>
<path d="M57.6272 8.97693H80.0494L89.2698 42.3325L98.5599 8.97693H120.563V58.6614H107.571V19.5139L96.7438 58.6614H81.5162L70.5496 19.5139V58.6614H57.5573V8.97693H57.6272Z" fill="black"/>
<path d="M153.742 59.7081C149.412 59.7081 145.36 58.801 141.798 56.9169C138.236 55.0328 135.232 52.4509 132.997 49.2409C130.761 45.9612 129.504 42.3325 129.225 38.2154H142.217C142.706 40.0297 143.474 41.7045 144.522 43.1001C145.57 44.4958 146.897 45.6123 148.504 46.3799C150.11 47.1475 151.856 47.5661 153.742 47.5661C155.559 47.5661 157.305 47.2172 158.911 46.5194C160.518 45.8216 161.845 44.7749 162.963 43.5188C164.081 42.193 164.849 40.7276 165.338 38.983H150.18V28.7251H165.338C164.849 27.0504 164.081 25.5152 162.963 24.1893C161.845 22.8635 160.518 21.8865 158.911 21.1887C157.305 20.4909 155.628 20.142 153.812 20.142C151.856 20.142 150.11 20.5607 148.504 21.3283C146.897 22.0959 145.57 23.2124 144.522 24.608C143.474 26.0036 142.706 27.6086 142.217 29.4927H129.225C129.504 25.4454 130.761 21.747 132.997 18.4672C135.232 15.1875 138.166 12.6056 141.798 10.7913C145.43 8.90716 149.412 8 153.742 8C158.562 8 162.963 9.11651 166.875 11.3495C170.786 13.5825 173.86 16.6529 176.095 20.6305C178.33 24.608 179.448 29.0043 179.448 33.9587C179.448 38.8435 178.33 43.2397 176.095 47.2172C173.86 51.1948 170.786 54.2652 166.875 56.4982C162.963 58.5916 158.562 59.7081 153.742 59.7081Z" fill="black"/>
<path d="M189.017 8.97693H234.63V58.6614H221.289V21.747H202.359V58.6614H189.017V8.97693V8.97693Z" fill="black"/>
<path d="M260.265 21.8167H243.012V8.97693H291V21.8167H273.677V58.6614H260.335V21.8167H260.265Z" fill="black"/>
<path d="M8.66118 84.9691C10.3376 84.9691 11.106 85.8064 11.106 87.3416V92.5055H9.21994V87.6208C9.21994 86.9927 8.94059 86.7136 8.31193 86.7136H2.23482V92.5055H0.348877V79.5959H2.23482V84.9691H6.63548L9.28986 79.5959H11.3854L8.66118 84.9691V84.9691Z" fill="black"/>
<path d="M12.9924 87.7604C12.9924 84.9691 15.088 82.7361 18.1614 82.7361C21.2349 82.7361 23.2606 84.9691 23.2606 87.7604C23.2606 90.5516 21.2349 92.7847 18.1614 92.7847C15.0181 92.7847 12.9924 90.5516 12.9924 87.7604ZM21.3746 87.7604C21.3746 85.9461 20.0474 84.4807 18.0916 84.4807C16.0659 84.4807 14.7387 85.9461 14.7387 87.7604C14.7387 89.5747 16.0659 91.0401 18.0916 91.0401C20.1173 91.0401 21.3746 89.5049 21.3746 87.7604Z" fill="black"/>
<path d="M34.297 92.5055H32.4809V84.7597H28.0104C28.0104 86.1553 28.0104 87.9697 27.9406 89.0164C27.731 92.5752 25.7752 92.5752 24.6576 92.5752H24.3782V90.7609H24.5877C25.2163 90.7609 26.0546 90.7609 26.1943 89.0164C26.2641 88.0394 26.2641 84.5504 26.2641 83.0152H34.4368V92.5055H34.297Z" fill="black"/>
<path d="M46.1718 92.5055H44.3556V84.7597H39.8852C39.8852 86.1553 39.8852 87.9697 39.8153 89.0164C39.6058 92.5752 37.65 92.5752 36.5324 92.5752H36.2529V90.7609H36.4624C37.0911 90.7609 37.9293 90.7609 38.069 89.0164C38.1389 88.0394 38.1389 84.5504 38.1389 83.0152H46.3115V92.5055H46.1718Z" fill="black"/>
<path d="M58.0465 88.3884H50.1534C50.2931 89.8538 51.5503 91.0401 53.2268 91.0401C54.4841 91.0401 55.462 90.4818 55.8811 89.5747H57.7671C57.1384 91.5983 55.3223 92.7846 53.0871 92.7846C50.0137 92.7846 48.1277 90.4818 48.1277 87.7603C48.1277 84.9691 50.1534 82.7361 53.0871 82.7361C56.3003 82.6663 58.3259 85.1784 58.0465 88.3884ZM50.2232 86.7834H56.0907C55.8113 85.3878 54.6937 84.4806 53.1569 84.4806C51.6202 84.4806 50.5026 85.3878 50.2232 86.7834Z" fill="black"/>
<path d="M68.943 90.7609H70.5496V94.9478H68.7335V92.5055H60.8403V94.9478H59.0242V90.7609H59.1638C59.7925 90.7609 60.6307 90.7609 60.7704 89.0164C60.8403 88.0394 60.8403 84.5504 60.8403 83.0152H68.8732V90.7609H68.943ZM67.0571 90.7609V84.7597H62.6564C62.6564 86.0856 62.6564 87.8301 62.5866 88.8768C62.5167 89.7142 62.377 90.3422 62.1675 90.7609H67.0571Z" fill="black"/>
<path d="M83.0531 86.7834C84.3803 86.8532 85.1487 87.6905 85.1487 89.1559V92.5752H83.3326V89.5049C83.3326 88.8768 82.9833 88.5977 82.3546 88.5977H79.4907V92.5752H77.6745V88.5977H74.8107C74.182 88.5977 73.8327 88.9466 73.8327 89.5049V92.5752H72.0166V89.1559C72.0166 87.6905 72.785 86.9229 74.1122 86.7834L71.877 83.0152H73.8327L76.068 86.7834H77.6047V83.0152H79.4208V86.7834H80.9576L83.1928 83.0152H85.1487L83.0531 86.7834Z" fill="black"/>
<path d="M103.869 92.5054H102.052V85.0388L98.8394 92.5054H97.5122L94.299 85.0388V92.5054H92.4829V82.9453H95.277L98.2107 89.7839L101.144 82.9453H103.939V92.5054H103.869Z" fill="black"/>
<path d="M113.858 82.9453H115.674V92.5054H113.858V85.597L108.479 92.5054H106.663V82.9453H108.479V89.9235L113.858 82.9453Z" fill="black"/>
<path d="M128.596 87.7604C128.596 90.761 126.501 92.8544 123.776 92.7846C122.24 92.7846 121.052 92.0868 120.354 91.0401H120.284V96.4133H118.468V83.0152H120.284V84.4109H120.354C121.052 83.4339 122.24 82.8059 123.776 82.7361C126.57 82.6663 128.596 84.7598 128.596 87.7604ZM126.78 87.7604C126.78 85.946 125.523 84.4806 123.497 84.4806C121.541 84.4806 120.284 85.946 120.284 87.7604C120.284 89.5747 121.541 91.0401 123.497 91.0401C125.523 91.0401 126.78 89.5747 126.78 87.7604Z" fill="black"/>
<path d="M130.133 87.7604C130.133 84.9691 132.228 82.7361 135.302 82.7361C138.375 82.7361 140.401 84.9691 140.401 87.7604C140.401 90.5516 138.375 92.7847 135.302 92.7847C132.228 92.7847 130.133 90.5516 130.133 87.7604ZM138.585 87.7604C138.585 85.9461 137.258 84.4807 135.302 84.4807C133.276 84.4807 131.949 85.9461 131.949 87.7604C131.949 89.5747 133.276 91.0401 135.302 91.0401C137.258 91.0401 138.585 89.5049 138.585 87.7604Z" fill="black"/>
<path d="M149.761 87.5509C150.809 87.9696 151.228 88.8767 151.228 89.7839C151.228 91.1097 150.25 92.5054 148.294 92.5054H142.427V82.9453H147.945C149.901 82.9453 150.809 84.2014 150.809 85.5272C150.809 86.225 150.529 87.0624 149.761 87.4811V87.5509V87.5509ZM144.312 84.7596V86.8531H147.945C148.643 86.8531 149.062 86.2948 149.062 85.8064C149.062 85.3179 148.713 84.7596 147.945 84.7596H144.312ZM148.224 90.7608C148.992 90.7608 149.412 90.2026 149.412 89.7141C149.412 89.2257 148.992 88.6674 148.224 88.6674H144.312V90.7608H148.224Z" fill="black"/>
<path d="M152.695 87.7604C152.695 84.9691 154.79 82.7361 157.864 82.7361C160.937 82.7361 162.963 84.9691 162.963 87.7604C162.963 90.5516 160.937 92.7847 157.864 92.7847C154.72 92.7847 152.695 90.5516 152.695 87.7604ZM161.147 87.7604C161.147 85.9461 159.819 84.4807 157.864 84.4807C155.838 84.4807 154.511 85.9461 154.511 87.7604C154.511 89.5747 155.838 91.0401 157.864 91.0401C159.819 91.0401 161.147 89.5049 161.147 87.7604Z" fill="black"/>
<path d="M172.183 82.9454H173.999V92.5054H172.183V85.5971L166.805 92.5054H164.988V82.9454H166.805V89.9235L172.183 82.9454ZM168.062 81.4102C167.154 81.4102 166.455 80.7124 166.455 79.8052V78.6189H167.992V79.5261C167.992 79.8052 168.202 80.0145 168.481 80.0145H170.507C170.786 80.0145 170.996 79.8052 170.996 79.5261V78.6189H172.532V79.8052C172.532 80.7124 171.834 81.4102 170.926 81.4102H168.062Z" fill="black"/>
<path d="M190.833 87.7603C190.833 90.5516 188.808 92.7846 185.804 92.7846C183.289 92.7846 181.404 91.1796 180.915 89.0164H182.8C183.22 90.2027 184.337 91.04 185.734 91.04C187.411 91.04 188.528 89.9933 188.878 88.5977H184.966V86.8532H188.878C188.528 85.4575 187.411 84.4806 185.734 84.4806C184.267 84.4806 183.22 85.318 182.8 86.4345H180.915C181.334 84.2712 183.289 82.6663 185.804 82.6663C188.808 82.6663 190.833 84.8993 190.833 87.7603Z" fill="black"/>
<path d="M199.355 86.7833C200.682 86.9229 201.451 87.6905 201.451 89.0861V92.5054H199.635V89.435C199.635 88.807 199.285 88.5278 198.657 88.5278H194.675V92.5054H192.859V82.9453H194.675V86.7135H197.33L199.565 82.9453H201.521L199.355 86.7833Z" fill="black"/>
<path d="M203.267 87.7604C203.267 84.9691 205.362 82.7361 208.436 82.7361C211.509 82.7361 213.535 84.9691 213.535 87.7604C213.535 90.5516 211.509 92.7847 208.436 92.7847C205.362 92.7847 203.267 90.5516 203.267 87.7604ZM211.719 87.7604C211.719 85.9461 210.392 84.4807 208.436 84.4807C206.41 84.4807 205.083 85.9461 205.083 87.7604C205.083 89.5747 206.41 91.0401 208.436 91.0401C210.392 91.0401 211.719 89.5049 211.719 87.7604Z" fill="black"/>
<path d="M222.755 82.9453H224.572V92.5054H222.755V88.5278H217.377V92.5054H215.561V82.9453H217.377V86.7135H222.755V82.9453Z" fill="black"/>
<path d="M226.667 87.7604C226.667 84.9691 228.763 82.7361 231.836 82.7361C234.909 82.7361 236.935 84.9691 236.935 87.7604C236.935 90.5516 234.909 92.7847 231.836 92.7847C228.693 92.7847 226.667 90.5516 226.667 87.7604ZM235.119 87.7604C235.119 85.9461 233.792 84.4807 231.836 84.4807C229.81 84.4807 228.483 85.9461 228.483 87.7604C228.483 89.5747 229.81 91.0401 231.836 91.0401C233.792 91.0401 235.119 89.5049 235.119 87.7604Z" fill="black"/>
<path d="M250.417 92.5054H248.6V85.0388L245.387 92.5054H244.06L240.847 85.0388V92.5054H239.031V82.9453H241.825L244.759 89.7839L247.692 82.9453H250.486V92.5054H250.417Z" fill="black"/>
<path d="M260.335 82.9453H262.151V92.5054H260.335V85.597L254.957 92.5054H253.141V82.9453H254.957V89.9235L260.335 82.9453Z" fill="black"/>
<path d="M271.511 86.7833C272.839 86.9229 273.607 87.6905 273.607 89.0861V92.5054H271.791V89.435C271.791 88.807 271.442 88.5278 270.813 88.5278H266.831V92.5054H265.015V82.9453H266.831V86.7135H269.486L271.721 82.9453H273.677L271.511 86.7833Z" fill="black"/>
<path d="M283.316 82.9453H285.133V92.5054H283.316V85.597L277.938 92.5054H276.122V82.9453H277.938V89.9235L283.316 82.9453Z" fill="black"/>
<path d="M7.19471 109.602H9.01082V119.162H7.19471V112.184L1.81611 119.092H0V109.532H1.81611V116.51L7.19471 109.602Z" fill="black"/>
<path d="M25.5654 119.092H23.7493V111.346H18.5104V119.092H16.6943V109.532H25.6352V119.092H25.5654Z" fill="black"/>
<path d="M37.4401 114.975H29.5469C29.6866 116.441 30.9439 117.627 32.6203 117.627C33.8776 117.627 34.8556 117.069 35.2747 116.161H37.1607C36.532 118.185 34.7159 119.371 32.4807 119.371C29.4072 119.371 27.5212 117.069 27.5212 114.347C27.5212 111.556 29.5469 109.323 32.4807 109.323C35.6938 109.323 37.7195 111.835 37.4401 114.975ZM29.6168 113.37H35.4843C35.2049 111.975 34.0872 111.067 32.5505 111.067C31.0138 111.067 29.8962 112.044 29.6168 113.37Z" fill="black"/>
<path d="M49.6641 114.347C49.6641 117.348 47.5685 119.441 44.8443 119.371C43.3076 119.371 42.1202 118.674 41.4217 117.627H41.3518V123H39.5356V109.602H41.3518V110.998H41.4217C42.1202 110.021 43.3076 109.393 44.8443 109.323C47.6384 109.253 49.6641 111.347 49.6641 114.347ZM47.848 114.347C47.848 112.533 46.5907 111.067 44.565 111.067C42.6091 111.067 41.3518 112.533 41.3518 114.347C41.3518 116.161 42.6091 117.627 44.565 117.627C46.5907 117.627 47.848 116.161 47.848 114.347Z" fill="black"/>
<path d="M61.05 114.975H53.1568C53.2965 116.441 54.5538 117.627 56.2303 117.627C57.4876 117.627 58.4655 117.069 58.8847 116.161H60.7706C60.1419 118.185 58.3258 119.371 56.0906 119.371C53.0172 119.371 51.1311 117.069 51.1311 114.347C51.1311 111.556 53.1569 109.323 56.0906 109.323C59.3038 109.323 61.3294 111.835 61.05 114.975ZM53.2266 113.37H59.0942C58.8148 111.975 57.6972 111.067 56.1604 111.067C54.6237 111.067 53.506 112.044 53.2266 113.37Z" fill="black"/>
<path d="M71.9467 117.348H73.5533V121.535H71.7371V119.092H63.8439V121.535H62.0278V117.348H62.1675C62.7962 117.348 63.6344 117.348 63.7741 115.603C63.844 114.626 63.8439 111.137 63.8439 109.602H71.8768V117.348H71.9467ZM70.0607 117.348V111.347H65.6601C65.6601 112.672 65.6601 114.417 65.5902 115.464C65.5204 116.301 65.3807 116.929 65.1711 117.348H70.0607V117.348Z" fill="black"/>
<path d="M74.3916 114.347C74.3916 111.556 76.4872 109.323 79.5606 109.323C82.6341 109.323 84.6597 111.556 84.6597 114.347C84.6597 117.138 82.6341 119.371 79.5606 119.371C76.4872 119.371 74.3916 117.138 74.3916 114.347ZM82.8436 114.347C82.8436 112.533 81.5164 111.067 79.5606 111.067C77.5349 111.067 76.2077 112.533 76.2077 114.347C76.2077 116.161 77.5349 117.627 79.5606 117.627C81.5164 117.627 82.8436 116.092 82.8436 114.347Z" fill="black"/>
<path d="M94.0197 114.208C95.0674 114.626 95.4865 115.533 95.4865 116.441C95.4865 117.766 94.5087 119.162 92.5528 119.162H86.6853V109.602H92.2036C94.1594 109.602 95.0674 110.858 95.0674 112.184C95.0674 112.882 94.788 113.719 94.0197 114.138V114.208V114.208ZM88.5713 111.347V113.44H92.2036C92.9021 113.44 93.3212 112.882 93.3212 112.393C93.3212 111.905 92.9719 111.347 92.2036 111.347H88.5713ZM92.483 117.348C93.2513 117.348 93.6704 116.79 93.6704 116.301C93.6704 115.813 93.2513 115.254 92.483 115.254H88.5713V117.348H92.483Z" fill="black"/>
<path d="M102.611 112.672C104.427 112.672 105.825 114.068 105.825 115.882C105.825 117.697 104.427 119.092 102.611 119.092H97.582V109.532H99.3982V112.672H102.611V112.672ZM102.611 117.348C103.38 117.348 104.008 116.72 104.008 115.882C104.008 115.115 103.38 114.487 102.611 114.487H99.3982V117.348H102.611ZM107.152 109.602H108.968V119.162H107.152V109.602Z" fill="black"/>
<path d="M120.563 119.092H118.118L115.534 115.743L113.019 119.092H110.714L114.486 114.277L110.854 109.532H113.229L115.674 112.812L118.118 109.532H120.354L116.721 114.208L120.563 119.092Z" fill="black"/>
<path d="M134.743 111.347H131.39V119.092H129.574V111.347H126.221V109.602H134.813V111.347H134.743Z" fill="black"/>
<path d="M145.36 114.975H137.467C137.607 116.441 138.864 117.627 140.54 117.627C141.798 117.627 142.776 117.069 143.195 116.161H145.081C144.452 118.185 142.636 119.371 140.401 119.371C137.327 119.371 135.441 117.069 135.441 114.347C135.441 111.556 137.467 109.323 140.401 109.323C143.614 109.323 145.57 111.835 145.36 114.975ZM137.467 113.37H143.335C143.055 111.975 141.938 111.067 140.401 111.067C138.934 111.067 137.747 112.044 137.467 113.37Z" fill="black"/>
<path d="M155.768 119.092H153.323L150.739 115.743L148.224 119.092H145.919L149.691 114.277L146.059 109.532H148.434L150.879 112.812L153.323 109.532H155.559L151.926 114.208L155.768 119.092Z" fill="black"/>
<path d="M164.639 109.602H166.455V119.162H164.639V115.185H159.261V119.162H157.445V109.602H159.261V113.37H164.639V109.602Z" fill="black"/>
<path d="M168.481 114.347C168.481 111.556 170.576 109.323 173.65 109.323C176.723 109.323 178.749 111.556 178.749 114.347C178.749 117.138 176.723 119.371 173.65 119.371C170.576 119.371 168.481 117.138 168.481 114.347ZM176.933 114.347C176.933 112.533 175.606 111.067 173.65 111.067C171.624 111.067 170.297 112.533 170.297 114.347C170.297 116.161 171.624 117.627 173.65 117.627C175.606 117.627 176.933 116.092 176.933 114.347Z" fill="black"/>
<path d="M189.786 119.092H187.97V111.347H183.499C183.499 112.742 183.499 114.557 183.429 115.603C183.22 119.162 181.264 119.162 180.146 119.162H179.867V117.348H180.077C180.705 117.348 181.543 117.348 181.683 115.603C181.753 114.626 181.753 111.137 181.753 109.602H189.926V119.092H189.786Z" fill="black"/>
<path d="M191.881 114.347C191.881 111.556 193.977 109.323 197.05 109.323C200.124 109.323 202.149 111.556 202.149 114.347C202.149 117.138 200.124 119.371 197.05 119.371C193.907 119.371 191.881 117.138 191.881 114.347ZM200.263 114.347C200.263 112.533 198.936 111.067 196.98 111.067C194.955 111.067 193.627 112.533 193.627 114.347C193.627 116.161 194.955 117.627 196.98 117.627C199.006 117.627 200.263 116.092 200.263 114.347Z" fill="black"/>
<path d="M211.509 111.346H205.991V119.092H204.175V109.532H211.509V111.346Z" fill="black"/>
<path d="M220.45 109.602H222.266V119.162H220.45V112.184L215.072 119.092H213.256V109.532H215.072V116.51L220.45 109.602Z" fill="black"/>
<path d="M232.185 109.602H234.001V119.162H232.185V112.184L226.807 119.092H224.99V109.532H226.807V116.51L232.185 109.602ZM228.134 107.997C227.226 107.997 226.527 107.299 226.527 106.392V105.206H228.064V106.113C228.064 106.392 228.273 106.601 228.553 106.601H230.579C230.858 106.601 231.068 106.392 231.068 106.113V105.206H232.604V106.392C232.604 107.299 231.906 107.997 230.998 107.997H228.134Z" fill="black"/>
<defs>
<linearGradient id="paint0_linear_2_2" x1="428.048" y1="116.566" x2="492.032" y2="116.566" gradientUnits="userSpaceOnUse">
<stop stop-color="#9789F8"/>
<stop offset="1" stop-color="#00FE5D"/>
</linearGradient>
<linearGradient id="paint1_linear_2_2" x1="517.037" y1="81.2888" x2="570.725" y2="81.2888" gradientUnits="userSpaceOnUse">
<stop stop-color="#FF00FF"/>
<stop offset="1" stop-color="#9789F8"/>
</linearGradient>
<linearGradient id="paint2_linear_2_2" x1="472.175" y1="10.7347" x2="550.868" y2="10.7347" gradientUnits="userSpaceOnUse">
<stop stop-color="#293DF4"/>
<stop offset="1" stop-color="#FF00FF"/>
</linearGradient>
</defs>
</svg>
