<svg width="1920" height="173" viewBox="0 0 1920 173" fill="none" xmlns="http://www.w3.org/2000/svg">
<g clip-path="url(#clip0_1101_2)">
<rect width="1920" height="173" fill="black"/>
<path fill-rule="evenodd" clip-rule="evenodd" d="M1058.66 102.712C1058.73 103.116 1058.81 103.521 1058.84 103.962C1058.95 104.844 1058.99 105.69 1058.95 106.719C1058.95 107.601 1058.92 108.484 1058.81 109.329C1058.77 109.733 1058.7 110.175 1058.62 110.579C1058.44 111.608 1058.19 112.638 1057.82 113.593C1057.74 113.862 1057.62 114.151 1057.5 114.43C1057.46 114.533 1057.42 114.634 1057.38 114.733C1057.12 115.284 1056.83 115.835 1056.54 116.386L1056.54 116.387C1056.06 117.306 1055.48 118.152 1054.85 118.924C1054.69 119.17 1054.48 119.396 1054.29 119.616L1054.28 119.617L1054.28 119.626C1054.21 119.699 1054.15 119.771 1054.08 119.843C1053.97 119.99 1053.83 120.137 1053.68 120.284L1053.68 120.284C1053.61 120.358 1053.53 120.422 1053.46 120.486L1053.46 120.487C1053.39 120.551 1053.31 120.615 1053.24 120.689C1053.1 120.817 1052.94 120.945 1052.78 121.073L1052.78 121.075C1052.63 121.203 1052.47 121.332 1052.33 121.461C1051.56 122.085 1050.71 122.637 1049.84 123.152C1049.32 123.446 1048.77 123.703 1048.22 123.96C1046.06 124.916 1043.68 125.431 1041.16 125.541L1040.53 125.541L780 125.541L780 87.7132L1040.57 87.7132C1043.76 87.7499 1046.69 88.4484 1049.36 89.8453C1049.45 89.9119 1049.55 89.965 1049.66 90.0209C1049.73 90.0577 1049.8 90.0957 1049.87 90.1394C1050.97 90.7644 1051.92 91.4629 1052.84 92.2349L1052.84 92.2355C1053.13 92.4926 1053.42 92.7498 1053.72 93.0436C1053.83 93.1907 1053.97 93.3377 1054.12 93.4848C1054.25 93.6317 1054.38 93.7879 1054.5 93.944C1054.63 94.1004 1054.76 94.2567 1054.89 94.4038C1055.51 95.1758 1056.06 96.0213 1056.57 96.9036C1056.9 97.455 1057.16 98.0065 1057.42 98.5579L1057.42 98.5601C1057.56 98.927 1057.71 99.2939 1057.86 99.6975C1058.19 100.653 1058.48 101.683 1058.66 102.712ZM1046.03 114.623C1046.39 114.329 1046.72 113.998 1047.02 113.63C1047.04 113.598 1047.06 113.562 1047.09 113.524L1047.09 113.523L1047.09 113.52L1047.09 113.519C1047.16 113.427 1047.23 113.317 1047.31 113.189C1047.97 112.344 1048.44 111.351 1048.74 110.285L1037.75 110.285L1037.75 102.822L1048.74 102.822C1048.66 102.491 1048.55 102.197 1048.44 101.903C1048.11 101.021 1047.64 100.212 1047.02 99.5137C1046.94 99.4034 1046.83 99.2931 1046.72 99.1828C1045.95 98.3741 1045.07 97.7491 1044.09 97.308C1043.82 97.1901 1043.53 97.0958 1043.26 97.0062L1043.26 97.0061L1043.26 97.006L1043.26 97.0056C1043.19 96.9837 1043.12 96.962 1043.06 96.9404C1042.84 96.8668 1042.62 96.7933 1042.4 96.7566C1041.74 96.6095 1041.08 96.536 1040.39 96.536C1038.96 96.536 1037.71 96.7933 1036.54 97.3815C1035.7 97.7859 1034.93 98.3741 1034.27 99.0358C1034.2 99.1185 1034.13 99.1974 1034.06 99.2749C1033.91 99.4387 1033.77 99.5964 1033.65 99.771C1032.88 100.8 1032.29 101.977 1031.96 103.337L1031.96 103.374C1031.67 104.403 1031.52 105.469 1031.52 106.572C1031.52 107.675 1031.67 108.778 1031.96 109.77L1031.96 109.807L1031.96 109.844C1032.15 110.689 1032.48 111.461 1032.84 112.16C1032.93 112.288 1033.02 112.426 1033.1 112.564C1033.18 112.702 1033.26 112.84 1033.36 112.969C1033.4 113.024 1033.43 113.079 1033.47 113.133C1033.53 113.221 1033.58 113.304 1033.65 113.373C1033.72 113.483 1033.83 113.63 1033.94 113.741C1034.05 113.888 1034.16 113.998 1034.27 114.108L1034.6 114.439C1034.93 114.733 1035.3 115.027 1035.7 115.285C1035.99 115.468 1036.25 115.615 1036.54 115.762C1037.71 116.314 1038.96 116.608 1040.35 116.608C1041.52 116.608 1042.62 116.424 1043.65 116.02C1043.72 115.983 1043.79 115.955 1043.87 115.928C1043.94 115.9 1044.01 115.873 1044.09 115.836C1044.49 115.652 1044.93 115.432 1045.29 115.174C1045.55 114.99 1045.81 114.807 1046.03 114.623ZM803.072 65.1046L814.462 47.4589L803.695 47.4589L794.796 61.1343L789.815 61.1343L789.815 47.4589L780 47.4589L780 84.331L789.815 84.331L789.815 70.6556L794.759 70.6556L803.658 84.331L815.451 84.331L803.072 65.1046ZM851.011 47.4589L844.126 72.1996L837.314 47.4589L820.798 47.4589L820.798 84.331L830.393 84.331L830.393 55.3259L838.45 84.331L849.656 84.331L857.64 55.3259L857.64 84.331L1140 84.331L1140 47.4589L851.011 47.4589ZM1065.91 88.4852L1065.91 124.732L1075.62 124.732L1075.62 97.7859L1089.35 97.7859L1089.35 124.732L1099.06 124.732L1099.06 88.4484L1065.91 88.4484L1065.91 88.4852ZM1105.14 97.8595L1105.14 88.4852L1105.14 88.4484L1140 88.4484L1140 97.8227L1127.4 97.8227L1127.4 124.732L1117.7 124.732L1117.7 97.8595L1105.14 97.8595Z" fill="url(#paint0_linear_1101_2)"/>
<path d="M-10 -15H39M-10 -15V34M-10 -15L39 34M39 -15V34M39 -15L-10 34M39 34H-10" stroke="white" stroke-width="3"/>
<circle cx="1860.5" cy="171.5" r="13.5" transform="rotate(90 1860.5 171.5)" stroke="white" stroke-width="3"/>
<circle cx="1847" cy="171.5" r="13.5" transform="rotate(90 1847 171.5)" stroke="white" stroke-width="3"/>
<circle cx="1833.5" cy="171.5" r="13.5" transform="rotate(90 1833.5 171.5)" stroke="white" stroke-width="3"/>
<rect x="1229.12" y="19.5" width="61.3467" height="61.3467" transform="rotate(-45 1229.12 19.5)" stroke="#B1A7FC" stroke-width="3"/>
<rect x="1252.5" y="19.5" width="28.288" height="28.288" transform="rotate(-45 1252.5 19.5)" stroke="#B1A7FC" stroke-width="3"/>
<path d="M666.493 110.824L673.751 103.567L681.433 111.249L674.176 118.507L671.615 121.068H675.236H685.5V131.932H675.236H671.615L674.176 134.493L681.433 141.751L673.751 149.433L666.493 142.176L663.932 139.615V143.236V153.5H653.068V143.236V139.615L650.507 142.176L643.249 149.433L635.567 141.751L642.824 134.493L645.385 131.932H641.764H631.5L631.5 121.068H641.764H645.385L642.824 118.507L635.567 111.249L643.249 103.567L650.507 110.824L653.068 113.385V109.764V99.5H663.932V109.764V113.385L666.493 110.824Z" stroke="#FF00FF" stroke-width="3"/>
</g>
<defs>
<linearGradient id="paint0_linear_1101_2" x1="780" y1="86.5" x2="1140" y2="86.5" gradientUnits="userSpaceOnUse">
<stop stop-color="#293DF4"/>
<stop offset="1" stop-color="#9789F8"/>
</linearGradient>
<clipPath id="clip0_1101_2">
<rect width="1920" height="173" fill="white"/>
</clipPath>
</defs>
</svg>
